<?xml version="1.0" standalone="no"?>
<!DOCTYPE svg PUBLIC "-//W3C//DTD SVG 20010904//EN"
 "http://www.w3.org/TR/2001/REC-SVG-20010904/DTD/svg10.dtd">
 <svg width="500" height="500" xmlns="http://www.w3.org/2000/svg">
  <!-- Created with Method Draw - http://github.com/duopixel/Method-Draw/ -->
<g>
   <title>background</title>
   <rect x="-1" y="-1" width="502" height="502" id="canvas_background" fill="#282a36"/>
   <g id="canvasGrid" display="none">
    <rect id="svg_1" width="100%" height="100%" x="0" y="0" stroke-width="0" fill="url(#gridpattern)"/>
   </g>
  </g>
  <g>
   <title>Layer 1</title>
   <path fill="#fff" stroke="#000" stroke-width="1.5" opacity="0.5" d="m111.5,28.5" id="svg_2"/>
   <path fill="#fff" stroke="#000" stroke-width="1.5" d="m77.999786,79.337082l-63.499786,109.49968l126.499634,0l-62.999847,-109.49968z" id="svg_3"/>
   <path fill="#fff" stroke="#000" stroke-width="1.5" d="m148.16626,76.003761l-63.499809,109.499672l126.499657,0l-62.999847,-109.499672z" id="svg_4" transform="rotate(180 147.916 130.754)"/>
   <path fill="#fff" stroke="#000" stroke-width="1.5" d="m216.666077,79.337082l-63.499802,109.49968l126.499619,0l-62.999817,-109.49968z" id="svg_5"/>
   <path fill="#fff" stroke="#000" stroke-width="1.5" d="m285.832489,75.503769l-63.499786,109.499664l126.499634,0l-62.999847,-109.499664z" id="svg_6" transform="rotate(180 285.583 130.254)"/>
   <path fill="#fff" stroke="#000" stroke-width="1.5" d="m146.999588,199.503403l-63.499786,109.499588l126.499634,0l-62.999847,-109.499588z" id="svg_7"/>
   <path fill="#fff" stroke="#000" stroke-width="1.5" d="m216.99939,196.003403l-63.499802,109.499557l126.499619,0l-62.999817,-109.499557z" id="svg_8" transform="rotate(180 216.749 250.753)"/>
   <path fill="#fff" stroke="#000" stroke-width="1.5" d="m216.332733,319.336273l-63.499802,109.499695l126.499619,0l-62.999817,-109.499695z" id="svg_9"/>
   <path fill="#fff" stroke="#000" stroke-width="1.5" d="m286.499176,315.50296l-63.499786,109.499664l126.499634,0l-62.999847,-109.499664z" id="svg_10" transform="rotate(180 286.249 370.253)"/>
   <path fill="#fff" stroke="#000" stroke-width="1.5" d="m285.499207,199.003403l-63.499817,109.499588l126.499634,0l-62.999817,-109.499588z" id="svg_11"/>
   <path fill="#fff" stroke="#000" stroke-width="1.5" d="m355.498993,195.503418l-63.499786,109.499573l126.499634,0l-62.999847,-109.499573z" id="svg_12" transform="rotate(180 355.249 250.253)"/>
   <path fill="#fff" stroke="#000" stroke-width="1.5" d="m354.832336,319.336273l-63.499786,109.499695l126.499634,0l-62.999847,-109.499695z" id="svg_13"/>
   <path fill="#fff" stroke="#000" stroke-width="1.5" d="m424.665436,315.00296l-63.499786,109.499664l126.499695,0l-62.999939,-109.499664l0.000031,0z" id="svg_14" transform="rotate(180 424.416 369.753)"/>
   <path fill="#fff" stroke="#000" stroke-width="1.5" d="m354.998993,79.33709l-63.499817,109.499672l126.499664,0l-62.999847,-109.499672z" id="svg_15"/>
   <path fill="#fff" stroke="#000" stroke-width="1.5" d="m147.499588,315.00296l-63.499802,109.499695l126.499649,0l-62.999863,-109.499695l0.000015,0z" id="svg_16" transform="rotate(180 147.25 369.753)"/>
  </g>
 </svg>
